<?xml version="1.0" encoding="utf-8"?>
<!-- Svg Vector Icons : http://www.onlinewebfonts.com/icon -->
<!DOCTYPE svg PUBLIC "-//W3C//DTD SVG 1.1//EN" "http://www.w3.org/Graphics/SVG/1.1/DTD/svg11.dtd">
<svg version="1.1" xmlns="http://www.w3.org/2000/svg" xmlns:xlink="http://www.w3.org/1999/xlink" x="0px" y="0px" viewBox="0 0 1000 1000" enable-background="new 0 0 1000 1000" xml:space="preserve">
<metadata> Svg Vector Icons : http://www.onlinewebfonts.com/icon </metadata>
<g><g><g><path d="M500,10C229.4,10.1,10.1,229.4,10,500c0.1,270.7,219.4,490,490,490c270.7-0.1,490-219.4,490-490C989.9,229.4,770.6,10.1,500,10z M500,928.7C263.2,928.3,71.7,736.8,71.2,500C71.7,263.2,263.2,71.7,500,71.2c236.8,0.5,428.3,192,428.7,428.7C928.3,736.8,736.8,928.3,500,928.7z"/><path d="M500,316.3c-101.5,0-183.7,82.2-183.7,183.7c0,101.4,82.2,183.7,183.7,183.7c101.4,0,183.7-82.3,183.7-183.7C683.7,398.5,601.4,316.3,500,316.3z M500,622.5c-67.6-0.2-122.3-54.9-122.5-122.5c0.1-67.6,54.8-122.3,122.5-122.5c67.6,0.1,122.3,54.8,122.5,122.5C622.3,567.6,567.6,622.3,500,622.5z"/><circle cx="500" cy="500" r="61.2"/></g></g><g></g><g></g><g></g><g></g><g></g><g></g><g></g><g></g><g></g><g></g><g></g><g></g><g></g><g></g><g></g></g>
</svg>